# Blender v2.81 (sub 16) OBJ File: 'all guns gta 3.blend'
# www.blender.org
mtllib 9mm pistol gta san andreas.mtl
o colt45_l0
v -0.016874 0.043749 0.074516
v -0.008435 0.051065 -0.146539
v -0.008435 0.051065 0.067595
v 0.008443 0.051065 0.067595
v 0.008443 0.051065 -0.146539
v -0.016874 0.031267 -0.152373
v 0.016881 0.031267 -0.152373
v -0.016874 0.043749 -0.152373
v 0.016881 0.043749 -0.152373
v 0.016881 0.043749 0.074516
v 0.016881 0.018784 0.077514
v 0.016881 0.012462 -0.045990
v 0.016881 0.018784 -0.102733
v -0.016874 0.018784 0.077514
v -0.016874 0.018784 -0.102733
v -0.016874 0.012462 -0.102733
v -0.008435 -0.001014 -0.038481
v 0.008443 -0.001014 0.092082
v -0.016874 0.006302 0.099004
v -0.016874 0.012462 -0.045990
v 0.016881 0.006302 0.099004
v -0.008435 -0.001014 0.092082
v -0.016874 0.006302 -0.042580
v 0.008443 -0.001014 -0.038481
v 0.016881 0.006302 -0.042580
v 0.010002 0.022828 0.076560
v 0.010002 0.041533 0.073413
v 0.006175 0.036316 0.083945
v -0.009994 0.041533 0.073413
v -0.006167 0.036316 0.083945
v -0.009994 0.022828 0.076560
v 0.003909 0.041448 0.093605
v 0.003909 0.045347 0.091603
v -0.003902 0.041448 0.093605
v 0.006175 0.041253 0.085037
v -0.006167 0.041253 0.085037
v -0.003902 0.045347 0.091603
v 0.008637 0.006302 0.051655
v -0.008630 0.006302 0.051655
v -0.008630 -0.035261 0.069410
v 0.008637 -0.035261 0.069410
v 0.008637 0.006302 0.088963
v -0.008630 0.006302 0.088963
v 0.010364 -0.089973 0.105193
v 0.016813 0.006302 0.052042
v 0.008637 0.006302 0.064635
v -0.008630 0.006302 0.064635
v -0.016805 0.006302 0.052042
v -0.016805 0.006302 0.021660
v -0.008630 0.006302 0.009068
v 0.008637 0.006302 0.009068
v 0.020175 -0.098708 0.056272
v 0.016813 0.006302 0.021661
v 0.020175 -0.095610 0.094662
v -0.010356 -0.089973 0.105193
v -0.020167 -0.098708 0.056272
v -0.010356 -0.098708 0.042734
v 0.010364 -0.098708 0.042734
v -0.020167 -0.095610 0.094662
v -0.005217 -0.028518 0.022263
v 0.005225 -0.028518 0.022263
v 0.005225 -0.028518 -0.022858
v 0.005225 -0.031148 0.023242
v -0.005217 -0.031148 -0.024775
v 0.005225 -0.031148 -0.024775
v -0.005217 -0.031148 0.023242
v -0.005217 -0.028518 -0.022858
v 0.005225 -0.017838 -0.032155
v -0.005217 -0.017838 -0.032155
v 0.005225 -0.018700 -0.034918
v -0.005217 -0.018700 -0.034918
v 0.005225 -0.000448 -0.032155
v 0.005225 -0.000448 -0.034918
v -0.005217 -0.000448 -0.032155
v -0.005217 -0.000448 -0.034918
v 0.008443 0.005147 -0.096898
v 0.016881 0.012462 -0.102733
v -0.008435 0.005147 -0.039556
v -0.008435 0.005147 -0.096898
v 0.008443 0.005147 -0.039556
v 0.002431 -0.028518 -0.001532
v 0.002431 -0.014766 0.004634
v -0.002424 -0.001014 -0.001532
v -0.002424 -0.028518 0.044546
v -0.002424 -0.001014 0.044546
v -0.002424 -0.014766 0.004634
v 0.002431 -0.028518 0.044546
v 0.002431 -0.001014 -0.001532
v 0.002431 -0.001014 0.044546
v -0.002424 -0.028518 -0.001532
v -0.009576 0.031267 -0.152373
v 0.009506 0.015358 -0.077008
v 0.004735 0.008042 -0.077008
v -0.004805 0.008042 -0.146539
v -0.004805 0.008042 -0.077008
v -0.009576 0.015358 -0.077008
v -0.009576 0.015358 -0.152373
v 0.004735 0.008042 -0.146539
v 0.009506 0.015358 -0.152373
v 0.009506 0.031267 -0.152373
vt 0.880518 0.950706
vt 0.028129 0.869857
vt 0.028129 0.953116
vt 0.892144 0.784187
vt 0.210798 0.786598
vt 0.892144 0.784187
vt 0.028129 0.869857
vt 0.210798 0.786598
vt 0.626640 0.564069
vt 0.615921 0.558315
vt 0.627762 0.680059
vt 0.638481 0.680059
vt 0.775006 0.029485
vt 0.827517 0.029485
vt 0.827517 0.029485
vt 0.775006 0.029485
vt 0.709426 0.454218
vt 0.709426 0.454218
vt 0.674539 0.492829
vt 0.674539 0.492829
vt 0.880518 0.950706
vt 0.847751 0.965757
vt 0.044839 0.968168
vt 0.028129 0.953116
vt 0.028129 0.869857
vt 0.028129 0.763741
vt 0.028129 0.763741
vt 0.028129 0.869857
vt 0.934835 0.666626
vt 0.938782 0.671457
vt 0.471848 0.693197
vt 0.465927 0.688366
vt 0.044839 0.968168
vt 0.628973 0.640056
vt 0.628973 0.640056
vt 0.660783 0.574897
vt 0.660783 0.574897
vt 0.975495 0.700928
vt 0.975495 0.700928
vt 0.413119 0.742019
vt 0.426346 0.700929
vt 0.426346 0.700928
vt 0.413119 0.742018
vt 0.681928 0.698513
vt 0.672060 0.703344
vt 0.847751 0.965757
vt 0.210798 0.744429
vt 0.210798 0.744429
vt 0.050760 0.714947
vt 0.050760 0.714947
vt 0.950760 0.045320
vt 0.950760 0.045320
vt 0.888442 0.811159
vt 0.876237 0.935926
vt 0.865774 0.843278
vt 0.870009 0.876211
vt 0.895479 0.903518
vt 0.903244 0.877509
vt 0.888442 0.811159
vt 0.865774 0.843278
vt 0.876237 0.935926
vt 0.870009 0.876211
vt 0.903244 0.877509
vt 0.895479 0.903518
vt 0.842190 0.700928
vt 0.793348 0.700929
vt 0.952135 0.121566
vt 0.914840 0.700929
vt 0.821243 0.435775
vt 0.821243 0.435775
vt 0.914840 0.700928
vt 0.292814 0.761331
vt 0.292814 0.712536
vt 0.675510 0.700929
vt 0.793349 0.700928
vt 0.791846 0.700929
vt 0.791846 0.700929
vt 0.840216 0.700928
vt 0.952135 0.121566
vt 0.667103 0.475292
vt 0.675510 0.700929
vt 0.636867 0.483167
vt 0.636867 0.483167
vt 0.233428 0.695634
vt 0.438075 0.693224
vt 0.713220 0.436681
vt 0.667103 0.475292
vt 0.626640 0.564069
vt 0.615921 0.558315
vt 0.627762 0.680059
vt 0.638481 0.680059
vt 0.713220 0.436681
vt 0.233428 0.695634
vt 0.438075 0.693224
vt 0.292814 0.712536
vt 0.764276 0.468674
vt 0.764276 0.652134
vt 0.764276 0.468674
vt 0.764276 0.652134
vt 0.292814 0.761331
vn 1.0000 0.0000 -0.0000
vn -1.0000 0.0000 0.0000
vn 0.0000 -1.0000 -0.0000
vn -0.0000 1.0000 -0.0000
vn -0.1877 0.9822 -0.0000
vn -0.0000 0.9828 0.1849
vn -0.6550 0.7556 -0.0000
vn 0.0000 0.0000 -1.0000
vn -0.0000 0.6235 -0.7818
vn 0.0000 -0.4091 -0.9125
vn -0.1839 -0.4021 -0.8969
vn 0.0000 -0.2343 -0.9722
vn 0.0000 -0.6873 0.7264
vn -0.0000 -0.3053 -0.9523
vn 0.0000 -0.6235 -0.7818
vn -0.0000 -0.9968 0.0804
vn 0.6550 -0.7556 -0.0000
vn 0.0000 -0.4888 -0.8724
vn 0.9278 0.0619 0.3678
vn 0.9341 0.0356 0.3553
vn 0.9355 0.0499 0.3498
vn 0.9506 -0.0658 0.3034
vn 0.9536 -0.0512 0.2967
vn 0.9421 -0.0957 0.3214
vn 0.9236 -0.0606 0.3785
vn 0.9261 -0.0890 0.3665
vn 0.9236 -0.1578 0.3495
vn 0.9698 0.0423 0.2401
vn 0.9792 0.0926 0.1804
vn 0.9745 0.1078 0.1969
vn -0.9278 0.0619 0.3678
vn -0.9355 0.0499 0.3498
vn -0.9341 0.0356 0.3553
vn -0.9506 -0.0658 0.3034
vn -0.9421 -0.0957 0.3214
vn -0.9536 -0.0512 0.2967
vn -0.9745 0.1078 0.1969
vn -0.9792 0.0926 0.1804
vn -0.9698 0.0423 0.2401
vn -0.9236 -0.1578 0.3495
vn -0.9261 -0.0890 0.3665
vn -0.9236 -0.0606 0.3785
vn 0.1753 0.8476 -0.5009
vn -0.0000 0.8486 -0.5291
vn 0.0095 0.8725 -0.4886
vn -0.7926 0.2532 0.5548
vn 0.0000 -0.4257 0.9049
vn 0.8376 -0.5462 -0.0000
vn 0.9995 0.0319 -0.0014
vn -0.0000 -0.9698 -0.2439
vn 0.0618 -0.4619 0.8848
vn 0.0000 -0.4803 0.8771
vn 0.0165 -0.6701 0.7421
vn 0.7926 0.2532 0.5548
vn 0.8128 -0.1622 -0.5595
vn -0.0000 0.3882 0.9216
vn -0.0000 0.9997 0.0241
vn -0.0218 0.9882 -0.1517
vn -0.0436 0.9981 0.0439
vn -0.9995 0.0319 -0.0014
vn 0.0000 0.6873 0.7264
vn 0.0000 0.8647 0.5023
vn -0.0000 -0.8816 0.4719
vn 0.0000 0.4091 -0.9125
vn 0.1839 0.4021 -0.8969
vn 0.0000 0.2343 -0.9722
vn 0.0000 0.4568 0.8896
vn 0.0000 0.1192 0.9929
vn -0.0000 0.1020 -0.9948
vn 0.1021 -0.0001 -0.9948
vn -0.6550 -0.7556 0.0000
vn 0.0000 -0.5251 -0.8510
vn 0.1295 -0.6264 -0.7687
vn -0.0001 -0.7076 -0.7066
vn -0.1020 -0.6284 -0.7712
vn 0.0000 -0.9916 0.1295
vn -0.1305 -0.9914 0.0000
vn 0.0000 -0.8831 0.4691
vn -0.0089 -0.8511 0.5249
vn -0.0056 -0.7778 0.6285
vn 0.6550 0.7556 -0.0000
vn 0.0000 -0.4843 -0.8749
vn -0.8376 -0.5462 0.0000
vn 0.1849 0.6452 0.7413
vn -0.0000 0.7864 0.6177
vn -0.1471 0.6494 0.7461
vn -0.0000 0.5380 0.8430
vn -0.8128 -0.1622 -0.5595
vn 0.1477 -0.0000 0.9890
vn 0.0000 0.1471 0.9891
vn 0.0000 -0.0000 1.0000
usemtl colt45_l0.0
s off
f 10/1/1 7/2/1 9/3/1
f 10/1/1 11/4/1 13/5/1
f 14/6/2 6/7/2 15/8/2
f 68/9/1 70/10/1 73/11/1 72/12/1
f 58/13/3 52/14/3 56/15/3 57/16/3
f 60/17/4 61/18/4 62/19/5 67/20/6
f 1/21/7 3/22/7 2/23/7 8/24/7
f 100/25/8 99/26/8 97/27/8 91/28/8
f 18/29/3 22/30/3 17/31/3 24/32/3
f 8/24/9 2/23/9 5/33/9
f 8/24/9 5/33/9 9/3/9
f 83/34/10 88/35/10 82/36/11 86/37/12
f 19/38/13 22/30/13 18/29/13 21/39/13
f 10/1/1 13/5/1 7/2/1
f 15/8/2 20/40/2 14/6/2
f 14/6/2 20/40/2 23/41/2
f 25/42/1 12/43/1 11/4/1
f 50/44/14 51/45/14 58/13/14 57/16/14
f 3/22/4 4/46/4 5/33/4 2/23/4
f 12/43/1 77/47/1 13/5/1
f 11/4/1 12/43/1 13/5/1
f 14/6/2 23/41/2 19/38/2
f 15/8/2 16/48/2 20/40/2
f 11/4/1 21/39/1 25/42/1
f 98/49/15 94/50/15 97/27/15 99/26/15
f 52/14/16 54/51/16 59/52/16 56/15/16
f 8/24/8 9/3/8 7/2/8 6/7/8
f 21/39/17 18/29/17 24/32/17 25/42/17
f 17/31/18 23/41/18 25/42/18
f 24/32/18 17/31/18 25/42/18
f 26/53/19 27/54/20 28/55/21
f 35/56/22 28/55/23 27/54/24
f 28/55/25 35/56/26 33/57/27
f 33/57/28 32/58/29 28/55/30
f 31/59/31 30/60/32 29/61/33
f 36/62/34 29/61/35 30/60/36
f 30/60/37 34/63/38 37/64/39
f 37/64/40 36/62/41 30/60/42
f 36/62/43 37/64/44 33/57/44 35/56/45
f 47/65/46 48/66/46 59/52/46 55/67/46
f 43/68/47 40/69/47 41/70/47 42/71/47
f 92/72/48 93/73/48 98/49/48 99/26/48
f 53/74/49 45/75/49 54/51/49 52/14/49
f 42/71/1 41/70/1 38/76/1
f 39/77/2 40/69/2 43/68/2
f 15/8/50 6/7/50 7/2/50 13/5/50
f 30/60/51 31/59/52 26/53/52 28/55/53
f 8/24/2 6/7/2 14/6/2 1/21/2
f 45/75/54 46/78/54 44/79/54 54/51/54
f 62/19/1 65/80/1 70/10/1 68/9/1
f 51/45/55 53/74/55 52/14/55 58/13/55
f 46/78/56 47/65/56 55/67/56 44/79/56
f 29/61/57 36/62/58 35/56/59 27/54/57
f 48/66/60 49/81/60 56/15/60 59/52/60
f 10/1/61 4/46/61 3/22/61 1/21/61
f 19/38/62 21/39/62 11/4/62 14/6/62
f 44/79/63 55/67/63 59/52/63 54/51/63
f 81/82/64 90/83/64 86/37/65 82/36/66
f 76/84/17 77/47/17 12/43/17 80/85/17
f 37/64/67 34/63/67 32/58/67 33/57/67
f 61/18/1 63/86/1 65/80/1 62/19/1
f 10/1/68 1/21/68 14/6/68 11/4/68
f 64/87/2 67/20/2 69/88/2 71/89/2
f 70/10/69 71/89/70 75/90/8 73/11/8
f 22/30/71 19/38/71 23/41/71 17/31/71
f 65/80/72 64/87/73 71/89/74 70/10/75
f 71/89/2 69/88/2 74/91/2 75/90/2
f 63/86/3 66/92/3 64/87/76 65/80/77
f 34/63/78 30/60/79 28/55/80 32/58/78
f 4/46/81 10/1/81 9/3/81 5/33/81
f 16/48/15 77/47/15 76/84/15
f 16/48/15 76/84/15 79/93/15
f 16/48/71 79/93/71 78/94/71 20/40/71
f 25/42/82 23/41/82 20/40/82 12/43/82
f 93/73/3 95/95/3 94/50/3 98/49/3
f 79/93/3 76/84/3 80/85/3 78/94/3
f 90/83/2 84/96/2 85/97/2
f 85/97/2 86/37/2 90/83/2
f 87/98/1 82/36/1 88/35/1
f 88/35/1 89/99/1 87/98/1
f 87/98/1 81/82/1 82/36/1
f 85/97/2 83/34/2 86/37/2
f 96/100/2 91/28/2 97/27/2
f 95/95/83 96/100/83 97/27/83 94/50/83
f 67/20/84 62/19/85 68/9/86 69/88/87
f 49/81/88 50/44/88 57/16/88 56/15/88
f 13/5/8 77/47/8 16/48/8 15/8/8
f 66/92/2 60/17/2 67/20/2 64/87/2
f 92/72/1 99/26/1 100/25/1
f 69/88/89 68/9/90 72/12/91 74/91/91
